<?xml version="1.0" standalone="no"?>
<!DOCTYPE svg PUBLIC "-//W3C//DTD SVG 20010904//EN"
 "http://www.w3.org/TR/2001/REC-SVG-20010904/DTD/svg10.dtd">
<svg version="1.0" xmlns="http://www.w3.org/2000/svg"
 width="64.000000pt" height="64.000000pt" viewBox="0 0 64.000000 64.000000"
 preserveAspectRatio="xMidYMid meet">

<g transform="translate(0.000000,64.000000) scale(0.100000,-0.100000)"
fill="#000000" stroke="none">
<path d="M0 320 l0 -320 320 0 320 0 0 320 0 320 -320 0 -320 0 0 -320z m201
37 c5 -21 13 -45 16 -53 4 -10 0 -12 -11 -8 -9 3 -16 12 -16 20 0 8 -4 14 -10
14 -5 0 -10 -25 -10 -55 0 -34 -4 -55 -11 -55 -7 0 -9 12 -6 33 3 17 9 63 13
101 7 72 15 73 35 3z m94 -54 c-7 -15 -9 -13 -14 12 l-7 30 -12 -34 c-22 -63
-22 -26 1 44 l22 69 9 -52 c5 -28 5 -59 1 -69z m130 104 c12 -10 16 -22 13
-40 -3 -16 -1 -27 6 -28 7 0 7 -2 -1 -5 -8 -4 -8 -12 2 -31 23 -44 -1 -83 -51
-83 -30 0 -34 3 -34 26 0 25 -1 26 -22 11 -13 -8 -22 -20 -20 -26 2 -13 -24
-15 -32 -2 -5 7 83 71 98 71 3 0 6 -16 6 -36 0 -28 3 -35 17 -32 20 4 27 29
19 64 -8 31 -25 30 -89 -6 -30 -16 -63 -30 -74 -30 -11 0 -24 -9 -29 -20 -9
-20 -10 -20 -20 7 -10 28 -10 28 30 28 26 0 55 9 79 24 37 23 39 25 35 72 -3
47 -2 49 23 49 14 0 33 -6 44 -13z"/>
<path d="M390 370 c0 -20 5 -30 15 -30 10 0 15 10 15 30 0 20 -5 30 -15 30
-10 0 -15 -10 -15 -30z"/>
</g>
</svg>
